<svg xmlns="http://www.w3.org/2000/svg" viewBox="-70 -70 868 530" width="100%" height="520" role="img" aria-label="Studio Apartment MarkHome layout"><defs><pattern id="markhome-grid" width="20" height="20" patternUnits="userSpaceOnUse"><path d="M 20 0 L 0 0 0 20" fill="none" stroke="rgba(0,0,0,0.05)" stroke-width="1" /></pattern></defs><rect x="-70" y="-70" width="868" height="530" fill="#f8f4ec" /><rect x="-70" y="-70" width="868" height="530" fill="url(#markhome-grid)" /><g><rect x="0" y="0" width="520" height="390" fill="#fffaf0" stroke="#1f2937" stroke-width="5" rx="2" /><text x="14" y="26" font-size="18" font-weight="700" fill="#111827">Main Space</text><text x="14" y="48" font-size="12" fill="#6b7280">520x390 cm</text></g><g><rect x="538" y="0" width="190" height="220" fill="#fffaf0" stroke="#1f2937" stroke-width="5" rx="2" /><text x="552" y="26" font-size="18" font-weight="700" fill="#111827">Bath</text><text x="552" y="48" font-size="12" fill="#6b7280">190x220 cm</text></g><g><rect x="538" y="238" width="190" height="150" fill="#fffaf0" stroke="#1f2937" stroke-width="5" rx="2" /><text x="552" y="264" font-size="18" font-weight="700" fill="#111827">Entry</text><text x="552" y="286" font-size="12" fill="#6b7280">190x150 cm</text></g><g><line x1="145" y1="0" x2="355" y2="0" stroke="#38bdf8" stroke-width="9" stroke-linecap="round" /><line x1="145" y1="0" x2="355" y2="0" stroke="#e0f2fe" stroke-width="3" stroke-linecap="round" /></g><g><line x1="0" y1="90" x2="0" y2="230" stroke="#38bdf8" stroke-width="9" stroke-linecap="round" /><line x1="0" y1="90" x2="0" y2="230" stroke="#e0f2fe" stroke-width="3" stroke-linecap="round" /></g><g><line x1="520" y1="265" x2="520" y2="355" stroke="#f8f4ec" stroke-width="12" stroke-linecap="round" /><line x1="520" y1="265" x2="520" y2="355" stroke="#92400e" stroke-width="4" stroke-linecap="round" /><path d="M 520 265 Q 565 310 520 355" fill="none" stroke="#b45309" stroke-width="2" stroke-dasharray="4 4" /></g><g><line x1="538" y1="85" x2="538" y2="157" stroke="#f8f4ec" stroke-width="12" stroke-linecap="round" /><line x1="538" y1="85" x2="538" y2="157" stroke="#92400e" stroke-width="4" stroke-linecap="round" /><path d="M 538 85 Q 493 121 538 157" fill="none" stroke="#b45309" stroke-width="2" stroke-dasharray="4 4" /></g><g><line x1="538" y1="286" x2="538" y2="366" stroke="#f8f4ec" stroke-width="12" stroke-linecap="round" /><line x1="538" y1="286" x2="538" y2="366" stroke="#92400e" stroke-width="4" stroke-linecap="round" /><path d="M 538 286 Q 493 326 538 366" fill="none" stroke="#b45309" stroke-width="2" stroke-dasharray="4 4" /></g><g><rect x="45" y="245" width="210" height="72" rx="10" fill="#d8c3a5" stroke="#374151" stroke-width="2" /><text x="150" y="285" text-anchor="middle" font-size="13" font-weight="700" fill="#111827">Sofa</text></g><g><rect x="320" y="230" width="150" height="110" rx="10" fill="#e8e0d0" stroke="#374151" stroke-width="2" /><text x="395" y="289" text-anchor="middle" font-size="13" font-weight="700" fill="#111827">Bed</text></g><g><rect x="185" y="122" width="110" height="80" rx="10" fill="#e8e0d0" stroke="#374151" stroke-width="2" /><text x="240" y="166" text-anchor="middle" font-size="13" font-weight="700" fill="#111827">Table</text></g><g><rect x="365" y="40" width="100" height="68" rx="10" fill="#c9d6df" stroke="#374151" stroke-width="2" /><text x="415" y="78" text-anchor="middle" font-size="13" font-weight="700" fill="#111827">Storage</text></g><g><rect x="12" y="352" width="142" height="22" rx="11" fill="#fef3c7" stroke="#f59e0b" /><text x="25" y="368" font-size="11" fill="#78350f">Open center path</text></g></svg>
